<svg width="466" height="103" viewBox="0 0 466 103" fill="none" xmlns="http://www.w3.org/2000/svg">
<path d="M88.2298 76.547L44.1481 102.086L-0.000976562 76.5859L0.0664167 25.6249L44.1481 0.0859375L88.2972 25.5859L88.2298 76.547Z" fill="white"/>
<path d="M57.8348 19.9994C61.2589 21.9771 61.2332 25.1974 57.7973 27.182L52.955 29.9788C50.4831 31.3206 43.6122 31.7868 40.1881 29.8091L27.1516 22.2794L44.467 12.2782L57.8348 19.9994Z" fill="black"/>
<path fill-rule="evenodd" clip-rule="evenodd" d="M44.1468 100.353L86.7308 75.6814L86.7959 26.4507L44.1491 1.81836L1.5651 26.4896L1.5 75.7203L44.1468 100.353ZM44.0916 5.87305L16.0996 22.0409L35.1999 33.073C43.6997 37.9824 52.508 36.9023 59.1379 33.073L63.1544 30.7531C69.7805 26.926 69.8256 20.7367 63.1919 16.9052L44.0916 5.87305ZM62.7348 46.6766L57.1334 49.9158L57.1469 80.078C57.1497 85.256 60.4006 87.1313 64.8816 84.5399C66.8607 83.3954 68.5782 81.7115 69.9218 79.7259C71.2294 80.1783 72.9103 79.8969 74.852 78.774C79.3704 76.161 82.692 70.5711 82.6892 65.3068L82.673 35.1464L77.0743 38.384C77.0773 43.9072 77.0884 48.411 77.0994 52.9148C77.1105 57.4186 77.1216 61.9224 77.1246 67.4457C77.1257 69.4738 77.0144 71.0489 74.8486 72.3014C73.2055 73.2516 72.7942 72.4967 72.7187 71.0727L72.7052 40.9106L67.1039 44.1499L67.1174 74.312C67.0061 75.8871 66.5959 77.074 64.8781 78.0673C62.8243 79.255 62.7114 77.7233 62.7104 75.7815C62.7102 75.3716 62.7193 74.9562 62.7284 74.5408C62.7375 74.1255 62.7466 73.7102 62.7464 73.3003L62.7348 46.6766Z" fill="black"/>
<path fill-rule="evenodd" clip-rule="evenodd" d="M149.985 35.5923C149.985 27.3945 143.241 20.6484 135.047 20.6484H120.109V80.4237H135.047C143.241 80.4237 149.985 73.7631 149.985 65.4799V35.5923ZM140.766 34.7383V66.4192C140.766 69.5788 138.205 72.226 135.047 72.226H129.243V28.9316H135.047C138.205 28.9316 140.766 31.5788 140.766 34.7383Z" fill="white"/>
<path fill-rule="evenodd" clip-rule="evenodd" d="M185.171 35.5923C185.171 27.3945 178.428 20.6484 170.234 20.6484C161.954 20.6484 155.296 27.3945 155.296 35.5923V65.4799C155.296 73.7631 161.954 80.4237 170.234 80.4237C178.428 80.4237 185.171 73.7631 185.171 65.4799V35.5923ZM175.953 34.7383V66.4192C175.953 69.5788 173.392 72.226 170.234 72.226C166.99 72.226 164.429 69.5788 164.429 66.4192V34.7383C164.429 31.5788 166.99 28.9316 170.234 28.9316C173.392 28.9316 175.953 31.5788 175.953 34.7383Z" fill="white"/>
<path d="M211.139 20.6484H220.358V65.4799C220.358 73.7631 213.614 80.4237 205.42 80.4237C197.14 80.4237 190.482 73.7631 190.482 65.4799V20.6484H199.616V66.4192C199.616 69.5788 202.176 72.1406 205.42 72.1406C208.578 72.1406 211.139 69.5788 211.139 66.4192V20.6484Z" fill="white"/>
<path fill-rule="evenodd" clip-rule="evenodd" d="M255.544 60.0012C255.459 55.3966 253.41 51.3035 250.167 48.5748C252.642 45.8462 254.093 42.35 254.093 38.4275V35.6136C254.093 27.4275 247.435 20.6911 239.155 20.6911H225.669V80.3811H240.607C248.801 80.3811 255.544 73.7299 255.544 65.4586V60.0012ZM239.155 28.9624C242.399 28.9624 244.96 31.6058 244.96 34.7609V39.2803C244.96 42.4353 242.399 45.0787 239.155 45.0787H234.802V28.9624H239.155ZM246.326 59.0632V66.3966C246.326 69.6808 243.462 72.195 240.265 72.195H234.802V53.35H240.521C243.765 53.35 246.326 55.9082 246.326 59.0632Z" fill="white"/>
<path d="M269.924 72.1406H284.756V80.4237H260.855V20.6484H269.924V72.1406Z" fill="white"/>
<path d="M299.135 28.9316H313.967V20.6484H290.067V80.4237H313.967V72.1406H299.135V53.2687H311.679V44.9855H299.135V28.9316Z" fill="white"/>
<path d="M319.278 20.6484H328.305C328.305 35.9509 328.245 51.2534 328.245 66.5559C328.245 69.2458 328.425 71.4574 331.735 71.4574C334.503 71.4574 335.165 70.1424 335.346 68.0502V20.6484H344.372V68.0502C344.493 70.0826 345.155 71.4574 347.802 71.4574C351.293 71.4574 351.473 69.3653 351.473 66.5559C351.473 51.2534 351.413 35.9509 351.413 20.6484H360.44V68.0502C360.44 75.3428 355.084 80.4237 347.802 80.4237C344.673 80.4237 341.965 79.4673 339.859 77.7936C337.693 79.4673 334.924 80.4237 331.735 80.4237C324.514 80.4237 319.278 75.2233 319.278 68.0502V20.6484Z" fill="white"/>
<path fill-rule="evenodd" clip-rule="evenodd" d="M395.626 35.5923C395.626 27.3945 388.883 20.6484 380.689 20.6484C372.409 20.6484 365.751 27.3945 365.751 35.5923V65.4799C365.751 73.7631 372.409 80.4237 380.689 80.4237C388.883 80.4237 395.626 73.7631 395.626 65.4799V35.5923ZM386.408 34.7383V66.4192C386.408 69.5788 383.847 72.226 380.689 72.226C377.445 72.226 374.884 69.5788 374.884 66.4192V34.7383C374.884 31.5788 377.445 28.9316 380.689 28.9316C383.847 28.9316 386.408 31.5788 386.408 34.7383Z" fill="white"/>
<path fill-rule="evenodd" clip-rule="evenodd" d="M430.813 80.4237H421.594L414.509 53.3541H410.071V80.4237H400.937V20.6484H414.424C422.704 20.6484 429.362 27.3945 429.362 35.5923V38.4102C429.362 43.4484 426.886 47.8889 422.96 50.6215L430.813 80.4237ZM420.228 34.7383C420.228 31.5788 417.668 28.9316 414.424 28.9316H410.071V45.0709H414.424C417.668 45.0709 420.228 42.4237 420.228 39.2642V34.7383Z" fill="white"/>
<path fill-rule="evenodd" clip-rule="evenodd" d="M465.999 35.5923C465.999 27.3945 459.256 20.6484 451.062 20.6484H436.124V80.4237H451.062C459.256 80.4237 465.999 73.7631 465.999 65.4799V35.5923ZM456.781 34.7383V66.4192C456.781 69.5788 454.22 72.226 451.062 72.226H445.257V28.9316H451.062C454.22 28.9316 456.781 31.5788 456.781 34.7383Z" fill="white"/>
</svg>
